<mxfile host="app.diagrams.net" modified="2024-01-08T21:04:38.448Z" agent="Mozilla/5.0 (X11; Ubuntu; Linux x86_64; rv:109.0) Gecko/20100101 Firefox/119.0" etag="Q7P3y8QFeUnqS25E_RXd" version="22.1.17" type="github">
  <diagram name="Page-1" id="hU4ktIKAVK_8A1NPl7u5">
    <mxGraphModel dx="1367" dy="1846" grid="1" gridSize="10" guides="1" tooltips="1" connect="1" arrows="1" fold="1" page="1" pageScale="1" pageWidth="850" pageHeight="1100" math="0" shadow="0">
      <root>
        <mxCell id="0" />
        <mxCell id="1" parent="0" />
        <mxCell id="cxdubeCqOBrOztKt_zzH-1" value="&lt;h1&gt;IMAGE component&lt;br&gt;&lt;/h1&gt;&lt;ul style=&quot;font-size: 14px;&quot;&gt;&lt;li&gt;&lt;i&gt;Preventing layout shift automatically when images are loading.&lt;/i&gt;&lt;/li&gt;&lt;li&gt;&lt;i&gt;Resizing images to avoid shipping large images to devices with a smaller viewport.&lt;/i&gt;&lt;/li&gt;&lt;li&gt;&lt;i&gt;Lazy loading images by default (images load as they enter the viewport).&lt;/i&gt;&lt;/li&gt;&lt;/ul&gt;&lt;p&gt;&lt;/p&gt;" style="text;html=1;strokeColor=none;fillColor=none;spacing=5;spacingTop=-20;whiteSpace=wrap;overflow=hidden;rounded=0;" vertex="1" parent="1">
          <mxGeometry x="50" y="-200" width="600" height="120" as="geometry" />
        </mxCell>
        <mxCell id="cxdubeCqOBrOztKt_zzH-5" value="&lt;h1&gt;Routes&lt;/h1&gt;&lt;p style=&quot;font-size: 17px;&quot;&gt;&lt;b&gt;&lt;font style=&quot;font-size: 17px;&quot;&gt;&lt;u&gt;E.g &lt;i&gt;&lt;br&gt;&lt;/i&gt;&lt;/u&gt;&lt;/font&gt;&lt;/b&gt;&lt;/p&gt;&lt;p style=&quot;font-size: 14px;&quot;&gt;&lt;i&gt;&lt;font style=&quot;font-size: 14px;&quot;&gt;/&amp;nbsp; maps to&amp;nbsp; app folder&amp;nbsp;&amp;nbsp;&amp;nbsp;&amp;nbsp;&amp;nbsp;&lt;/font&gt;&lt;/i&gt;&lt;/p&gt;&lt;p style=&quot;font-size: 14px;&quot;&gt;&lt;i&gt;&lt;font style=&quot;font-size: 14px;&quot;&gt;/dashboard&amp;nbsp; maps to&amp;nbsp;&amp;nbsp; app/dashboard&lt;/font&gt;&lt;/i&gt;&lt;/p&gt;&lt;p style=&quot;font-size: 14px;&quot;&gt;&lt;i&gt;&lt;font style=&quot;font-size: 14px;&quot;&gt;&lt;br&gt;&lt;/font&gt;&lt;/i&gt;&lt;/p&gt;&lt;p style=&quot;font-size: 14px;&quot;&gt;&lt;i&gt;&lt;font style=&quot;font-size: 14px;&quot;&gt;For each route to &quot;work&quot; it need a page.tsx&amp;nbsp; or page.jsx file&lt;/font&gt;&lt;/i&gt;&lt;/p&gt;&lt;p style=&quot;font-size: 14px;&quot;&gt;&lt;i&gt;&lt;font style=&quot;font-size: 14px;&quot;&gt;this will be like the endpoint used to render the component&amp;nbsp; &lt;br&gt;&lt;/font&gt;&lt;/i&gt;&lt;/p&gt;&lt;p style=&quot;font-size: 14px;&quot;&gt;&lt;i&gt;&lt;font style=&quot;font-size: 14px;&quot;&gt;The route &lt;br&gt;&lt;/font&gt;&lt;/i&gt;&lt;/p&gt;&lt;p style=&quot;font-size: 14px;&quot;&gt;&lt;i&gt;&lt;font style=&quot;font-size: 14px;&quot;&gt;E.g dashboard&amp;nbsp; &lt;br&gt;&lt;/font&gt;&lt;/i&gt;&lt;/p&gt;&lt;p style=&quot;font-size: 14px;&quot;&gt;&lt;i&gt;&lt;font style=&quot;font-size: 14px;&quot;&gt;can also have a layout.tsx&amp;nbsp; file&amp;nbsp; which will be like a master template that&amp;nbsp; wraps the app&lt;/font&gt;&lt;/i&gt;&lt;/p&gt;&lt;p style=&quot;font-size: 14px;&quot;&gt;&lt;i&gt;&lt;font style=&quot;font-size: 14px;&quot;&gt;&lt;br&gt;&lt;/font&gt;&lt;/i&gt;&lt;/p&gt;&lt;div style=&quot;color: rgb(204, 204, 204); background-color: rgb(31, 31, 31); font-family: &amp;quot;Droid Sans Mono&amp;quot;, &amp;quot;monospace&amp;quot;, monospace; font-weight: normal; font-size: 14px; line-height: 19px;&quot;&gt;&lt;div&gt;import&lt;span style=&quot;color: #cccccc;&quot;&gt; &lt;/span&gt;&lt;span style=&quot;color: #9cdcfe;&quot;&gt;SideNav&lt;/span&gt;&lt;span style=&quot;color: #cccccc;&quot;&gt; &lt;/span&gt;&lt;span style=&quot;color: #c586c0;&quot;&gt;from&lt;/span&gt;&lt;span style=&quot;color: #cccccc;&quot;&gt; &lt;/span&gt;&lt;span style=&quot;color: #ce9178;&quot;&gt;&#39;@/app/ui/dashboard/sidenav&#39;&lt;/span&gt;&lt;span style=&quot;color: #cccccc;&quot;&gt;;&lt;/span&gt;&lt;/div&gt;&lt;div&gt;&lt;span style=&quot;color: #cccccc;&quot;&gt; &lt;/span&gt;&lt;/div&gt;&lt;div&gt;&lt;span style=&quot;color: #c586c0;&quot;&gt;export&lt;/span&gt;&lt;span style=&quot;color: #cccccc;&quot;&gt; &lt;/span&gt;&lt;span style=&quot;color: #c586c0;&quot;&gt;default&lt;/span&gt;&lt;span style=&quot;color: #cccccc;&quot;&gt; &lt;/span&gt;&lt;span style=&quot;color: #569cd6;&quot;&gt;function&lt;/span&gt;&lt;span style=&quot;color: #cccccc;&quot;&gt; &lt;/span&gt;&lt;span style=&quot;color: #dcdcaa;&quot;&gt;Layout&lt;/span&gt;&lt;span style=&quot;color: #cccccc;&quot;&gt;({ &lt;/span&gt;&lt;span style=&quot;color: #9cdcfe;&quot;&gt;children&lt;/span&gt;&lt;span style=&quot;color: #cccccc;&quot;&gt; }&lt;/span&gt;&lt;span style=&quot;color: #d4d4d4;&quot;&gt;:&lt;/span&gt;&lt;span style=&quot;color: #cccccc;&quot;&gt; { &lt;/span&gt;&lt;span style=&quot;color: #9cdcfe;&quot;&gt;children&lt;/span&gt;&lt;span style=&quot;color: #d4d4d4;&quot;&gt;:&lt;/span&gt;&lt;span style=&quot;color: #cccccc;&quot;&gt; &lt;/span&gt;&lt;span style=&quot;color: #4ec9b0;&quot;&gt;React&lt;/span&gt;&lt;span style=&quot;color: #cccccc;&quot;&gt;.&lt;/span&gt;&lt;span style=&quot;color: #4ec9b0;&quot;&gt;ReactNode&lt;/span&gt;&lt;span style=&quot;color: #cccccc;&quot;&gt; }) {&lt;/span&gt;&lt;/div&gt;&lt;div&gt;&lt;span style=&quot;color: #cccccc;&quot;&gt;  &lt;/span&gt;&lt;span style=&quot;color: #c586c0;&quot;&gt;return&lt;/span&gt;&lt;span style=&quot;color: #cccccc;&quot;&gt; (&lt;/span&gt;&lt;/div&gt;&lt;div&gt;&lt;span style=&quot;color: #cccccc;&quot;&gt;    &lt;/span&gt;&lt;span style=&quot;color: #808080;&quot;&gt;&amp;lt;&lt;/span&gt;&lt;span style=&quot;color: #569cd6;&quot;&gt;div&lt;/span&gt;&lt;span style=&quot;color: #cccccc;&quot;&gt; &lt;/span&gt;&lt;span style=&quot;color: #9cdcfe;&quot;&gt;className&lt;/span&gt;&lt;span style=&quot;color: #d4d4d4;&quot;&gt;=&lt;/span&gt;&lt;span style=&quot;color: #ce9178;&quot;&gt;&quot;flex h-screen flex-col md:flex-row md:overflow-hidden&quot;&lt;/span&gt;&lt;span style=&quot;color: #808080;&quot;&gt;&amp;gt;&lt;/span&gt;&lt;/div&gt;&lt;div&gt;&lt;span style=&quot;color: #cccccc;&quot;&gt;      &lt;/span&gt;&lt;span style=&quot;color: #808080;&quot;&gt;&amp;lt;&lt;/span&gt;&lt;span style=&quot;color: #569cd6;&quot;&gt;div&lt;/span&gt;&lt;span style=&quot;color: #cccccc;&quot;&gt; &lt;/span&gt;&lt;span style=&quot;color: #9cdcfe;&quot;&gt;className&lt;/span&gt;&lt;span style=&quot;color: #d4d4d4;&quot;&gt;=&lt;/span&gt;&lt;span style=&quot;color: #ce9178;&quot;&gt;&quot;w-full flex-none md:w-64&quot;&lt;/span&gt;&lt;span style=&quot;color: #808080;&quot;&gt;&amp;gt;&lt;/span&gt;&lt;/div&gt;&lt;div&gt;&lt;span style=&quot;color: #cccccc;&quot;&gt;        &lt;/span&gt;&lt;span style=&quot;color: #808080;&quot;&gt;&amp;lt;&lt;/span&gt;&lt;span style=&quot;color: #4ec9b0;&quot;&gt;SideNav&lt;/span&gt;&lt;span style=&quot;color: #cccccc;&quot;&gt; &lt;/span&gt;&lt;span style=&quot;color: #808080;&quot;&gt;/&amp;gt;&lt;/span&gt;&lt;/div&gt;&lt;div&gt;&lt;span style=&quot;color: #cccccc;&quot;&gt;      &lt;/span&gt;&lt;span style=&quot;color: #808080;&quot;&gt;&amp;lt;/&lt;/span&gt;&lt;span style=&quot;color: #569cd6;&quot;&gt;div&lt;/span&gt;&lt;span style=&quot;color: #808080;&quot;&gt;&amp;gt;&lt;/span&gt;&lt;/div&gt;&lt;div&gt;&lt;span style=&quot;color: #cccccc;&quot;&gt;      &lt;/span&gt;&lt;span style=&quot;color: #808080;&quot;&gt;&amp;lt;&lt;/span&gt;&lt;span style=&quot;color: #569cd6;&quot;&gt;div&lt;/span&gt;&lt;span style=&quot;color: #cccccc;&quot;&gt; &lt;/span&gt;&lt;span style=&quot;color: #9cdcfe;&quot;&gt;className&lt;/span&gt;&lt;span style=&quot;color: #d4d4d4;&quot;&gt;=&lt;/span&gt;&lt;span style=&quot;color: #ce9178;&quot;&gt;&quot;flex-grow p-6 md:overflow-y-auto md:p-12&quot;&lt;/span&gt;&lt;span style=&quot;color: #808080;&quot;&gt;&amp;gt;&lt;/span&gt;&lt;span style=&quot;color: #569cd6;&quot;&gt;{&lt;/span&gt;&lt;span style=&quot;color: #9cdcfe;&quot;&gt;children&lt;/span&gt;&lt;span style=&quot;color: #569cd6;&quot;&gt;}&lt;/span&gt;&lt;span style=&quot;color: #808080;&quot;&gt;&amp;lt;/&lt;/span&gt;&lt;span style=&quot;color: #569cd6;&quot;&gt;div&lt;/span&gt;&lt;span style=&quot;color: #808080;&quot;&gt;&amp;gt;&lt;/span&gt;&lt;/div&gt;&lt;div&gt;&lt;span style=&quot;color: #cccccc;&quot;&gt;    &lt;/span&gt;&lt;span style=&quot;color: #808080;&quot;&gt;&amp;lt;/&lt;/span&gt;&lt;span style=&quot;color: #569cd6;&quot;&gt;div&lt;/span&gt;&lt;span style=&quot;color: #808080;&quot;&gt;&amp;gt;&lt;/span&gt;&lt;/div&gt;&lt;div&gt;&lt;span style=&quot;color: #cccccc;&quot;&gt;  );&lt;/span&gt;&lt;/div&gt;&lt;div&gt;&lt;span style=&quot;color: #cccccc;&quot;&gt;}&lt;/span&gt;&lt;/div&gt;&lt;/div&gt;&lt;p style=&quot;font-size: 14px;&quot;&gt;&lt;i&gt;&lt;font style=&quot;font-size: 14px;&quot;&gt;&amp;nbsp;&lt;/font&gt;&lt;/i&gt;&lt;/p&gt;" style="text;html=1;strokeColor=none;fillColor=none;spacing=5;spacingTop=-20;whiteSpace=wrap;overflow=hidden;rounded=0;" vertex="1" parent="1">
          <mxGeometry x="50" y="-90" width="710" height="630" as="geometry" />
        </mxCell>
        <mxCell id="cxdubeCqOBrOztKt_zzH-6" value="&lt;div style=&quot;font-size: 14px;&quot;&gt;&lt;font style=&quot;font-size: 14px;&quot;&gt;So in the example above the children components of this Layout component will be page.tsx&amp;nbsp;&lt;/font&gt;&lt;/div&gt;&lt;div style=&quot;font-size: 14px;&quot;&gt;&lt;font style=&quot;font-size: 14px;&quot;&gt;Basically if we got Layout.tsx inside&amp;nbsp; dashboard&amp;nbsp; route&amp;nbsp;&amp;nbsp; app/dashboard/Layout.tsx&amp;nbsp;&amp;nbsp; and we also got the&amp;nbsp; page inside the dashboard route like&amp;nbsp; app/dashboard/page.tsx&amp;nbsp; &lt;br&gt;&lt;/font&gt;&lt;/div&gt;&lt;div style=&quot;font-size: 14px;&quot;&gt;&lt;font style=&quot;font-size: 14px;&quot;&gt;then&amp;nbsp; the children component of Layout.tsx will be only page.tsx &lt;br&gt;&lt;/font&gt;&lt;/div&gt;&lt;div style=&quot;font-size: 14px;&quot;&gt;&lt;font style=&quot;font-size: 14px;&quot;&gt;&lt;br&gt;&lt;/font&gt;&lt;/div&gt;&lt;div style=&quot;font-size: 14px;&quot;&gt;&lt;font style=&quot;font-size: 14px;&quot;&gt;For example. If in app folder we got page.tsx and page2.tsx and Layout.tsx then&amp;nbsp; Layout will consider page and page2 as its children.&lt;/font&gt;&lt;/div&gt;&lt;div style=&quot;font-size: 14px;&quot;&gt;&lt;font style=&quot;font-size: 14px;&quot;&gt;If we got&amp;nbsp; page.tsx&amp;nbsp; in&amp;nbsp; app/dashboard&amp;nbsp; and Layout.tsx then Layout will only consider&amp;nbsp;&amp;nbsp; page.tsx as its child. &lt;br&gt;&lt;/font&gt;&lt;/div&gt;&lt;div style=&quot;font-size: 14px;&quot;&gt;&lt;font style=&quot;font-size: 14px;&quot;&gt;&lt;br&gt;&lt;/font&gt;&lt;/div&gt;" style="text;html=1;strokeColor=none;fillColor=none;align=center;verticalAlign=middle;whiteSpace=wrap;rounded=0;" vertex="1" parent="1">
          <mxGeometry x="20" y="540" width="705" height="110" as="geometry" />
        </mxCell>
        <mxCell id="cxdubeCqOBrOztKt_zzH-7" value="" style="shape=image;verticalLabelPosition=bottom;labelBackgroundColor=default;verticalAlign=top;aspect=fixed;imageAspect=0;image=data:image/png,iVBORw0KGgoAAAANSUhEUgAAAR8AAADXCAYAAAAjm1UgAAAABHNCSVQICAgIfAhkiAAAABl0RVh0U29mdHdhcmUAZ25vbWUtc2NyZWVuc2hvdO8Dvz4AAAArdEVYdENyZWF0aW9uIFRpbWUATHUgMDggaWFuIDIwMjQgMjM6MDM6MTYgKzAyMDAZx3gUAAAgAElEQVR4nO3dfVzUdb7//4fMDAwyciEgI6CAoIhkICgmXkvZai0d3TKzU+vWr7aLU3v25HbyYnetNuu41Z7s7NGtY1u6ZbmtfnVNN4q8KFBBXFARQQhGrmYcxpnBAQZmBn9/gInFlYoO6ut+u3m7yXzen8/7M6PznM/7/RnerwFarfYcQghxjXm4+wSEEDcnCR8hhFtI+Agh3ELCRwjhFhI+Qgi3kPARQriFhI8QolMqb088NWoGeFydmFBelaMKIa5bA4MGERQbhqePGoBzreeorzZhKqmh1dXaZ/3IlY8Q4js+wb6EJkV/FzwAAzwG4DcsiKHjRsCAAX3W1+WHT2AIAYreNPQhJER12d0IIa6RARA8ZliXm70Haxik9e+z7i5z2BXAjKde51E+YdlrO6h0dN1u/FOr+NXI3SxZsplKVzeHDE9m2opUQodoUOCk6VQZxe9/RmF+c9v2qGRSn0wmONwPjY8SmmyYjxdT8tFXlJY629oowohbfifRI/zR+HqhaG3GpqtAt20vR/eZ6K57IW52XoO8UXp1f6HgE+zH2Vpzn/Sn0Gg0Ky99NzsV+d8yeO6/8WiynUP7S6j/wVDQh/E//y9+lVTG2pff5cjZHg7pasVh1lG+M4/Sg7V4jEki/o7BmDKKOesAoscx4SehWLfu4NC2o1QU1aNOnMAtPx6BM6+AOgugHM6YZ5IZ+M+vyPnLQb7Nq8U5JI7R940nyFpERan90p+qEDcJL403g0IHd9vG1eLkbM2ZPunv8odd9QWsX7GKLwY/xKoX7mbYRYHpw/ifv8qvkstY++vX2WPoxfEaDNTsKUN/tBpjTgG5H52gyScM7fAObVxNWP9ZTE1OGTUZ2WSv2E65I4yx98XScQToqCijMkdHzb4C8l/ZxOGjCkLnpxDcq2GiEDenFlvPH84tDX33AX5ld7saCtiwYhW8uIxVL9A+BPMh4bFX+dW4Ut5auoZsUy+PNTSaxMWTCR8ZhGYgtDSCp8KBwqubferLqD3hJGpEOL6KYjq/GLRQmWdgwkNagoaAsfaSn6UQNwVns4MGYz0+wb5dtDhHfVVv39A9u/Jb7Q0FbPjtSnhxJateGMgn+incn1jKW8svIXgUISSuWMBoCjm8PhNjjRNl/GSmPhJ2xacnhOi908crCZ8Qg2rgDz/1607U0Hy2qc/66pvv+TQUtQXQb1fyqDaL369YQ/alzEn5hhM4FM5s/IqSLFvbY55WXPQQPuowhkQrcZzUU++ii0GkF9oxQVB/AnPdJZyTEDchV7ODygMl+A0LwifYFw+lBy02O5ZTddgtDX3aV999ybChiA3P38+Gy9m3Xo/ZBKNmTmNUbQFGsxPlCB9+MEWj0DBs/nTq91RhQ4N2zjRifE0U7Si+6E6W75RpxFsKMVmU+E6YSGKKAuPGg+i7vCsnhDiv1enCXG7AXN6bydrL1z++4eyqpuD1DFSPppC4JAGVClwNNppqDdhsFzXENSiC+KdT0Kih6VQZ+aszKDzqvOhwLa0+RCycT6I/OEwGqt7/iNytfTdWFUJcuf4RPoCrOI+Dz+dxsNtGTdR8sIHDRd0fy569i52bLX15ekKIPia/XiGEcAsJHyGEWwyQ6hVCCHeQKx8hhFtI+Agh3ELCRwjhFhI+Qgi3kPARQriFhI8Qwi0kfIQQbiHhI4RwCwkfIYRbSPgIIdxCwkcI4RY3RPioEpNJeiwB3z5YIF6VmEzSE8nd1iQ731/v6pZdK0oC5kxnQnrYDxdhE+IyXO1yyTdE+GiSk4mbFoGmD56NJjGZuGlheHdzLE1iMnEzI7ptc+1p0N6eyqjEIHefiLjODQwaxPDJo4mYOobhqaMZMWsswXHheCj69j/8VX/7+IQE0Kt6pd4hhHS1aL4Q4pq4Psol94b3eB5dtY6VC+K6DyCfOB5+eQ2rHkjoXVAJIfre9VEuuZeaDrH2tY9Z+ZuVrGQlKzcX8YM13L3jePi3K7mjYSPL3iv44fbvU2jQ3j+bpNujCWhfo9nUpLm4TQ+llxUxyYx/PIWIEf6oaKap5gS5K3ZSWd++vzqGCW8/g3eQBlosnMnL45/v5mCs79CHZxi3/PZxbhsdiLfThvX4cQre20tl1YX1pFVjU0h6MJmIGH882o9z5P0c9OeXk1aEEP/KfOJj/FF5OHGYDOj+/jmHthvaFsRXhDDquTsZNToIjb8XilYbxs2bydhsAN8wRj2aRtyEEDRqF7byWhyBgLX3/zxCdHStyyVf9TWcHSe3svIlOg8g7zgWvLiSO85u7KHm+3lKAh5axIx0L4y7vmJfgQUCw4m6J+TiZuYqSj/eSYnJjss7iMj700h87k7MT2ynxh5CwpLZRDTkkPu7Y1ia1WiGKTF3rArSaqFmWxbVp50ohscy9v40piqs/H118YVz91Di0uWQu70Ol38kMfelMO0lL3b/+05q6kERN507fpuKujCbw69X0egbTux9acx4aRCZz2VitAOuBk7v3Ie53oIDNQEz00haPB9H+VoOHwU8gtDeFoYiN5OsTAMO1GAwgSKQuGWLSBpuovSv26msduIVE0/c3Vf8zyVuYgpVz3Gg8Oy7yLgmC8g7Tm5l5W9g5UsdAsh7BAt+vYw7rRtZtro3wQOoo4mbHUjL15vZ825Ze7mcMmyhsQyb0aFdg4Ga72o0V2N0hTFseQTa4VBTqkHtC87iCqryDTgA8/cXpG+po/rLYmocQJ4OR2g0aZNjCVa1PwZg11H0fl77zzpqvoW7V6cQN2MfNdsdDL8vhQBzHhm/24vR0XaeBp2SOa8mcevtB8ncYQNsGPcVftet8YQa7eR0tHH+cPTCAviOshIqczosiJ+YzKg4qPnjhxzMaLuaI8eEOjmegF68jEJ05voql3wJHOVtAbT8pWWsVG+kePRDTG/YyMrXMqh09bw/AOFaBqudmAt1dLtLd6WXHTqKtlSgXbSAeRHFlH5VQElGGV2/7k6sNVZQqxnoDV2OC8srMNanEhEdAgonQ0YocRSUtQdPG1dpKYb6FKJiQ2CHDdSBRD2URlxyCBp/NTTawQMavbq/We4dpUXjMlBytLnbdkJcimtdLvma3ix2lG/llRWf4Eh7kun1G1l2KcHznR7y8nzp5XALJes/4fOlH/L1lgpavuvHifnTTWx7+iMOH4XQhQu4Z90CRkV1c8y2CZju+/XoucnFlGgfX0TqTA3GbTvZveI9vliTh6mlF7u62vYXoq+dPl6Jo7HzD7X+WS75Ejh0O1j50x2Xt3NVFWcaIDw5FlVGYecXIb0sveyq1VG6Xkfp/0tg5ttzibszjJJ11Zd3XoAiPhatrxPTSQO4HJh0TmJiowlWdbj6iYkk5HwbhR+BIzS4Cr/i8K72IaTKgM0B3j301XSyGpsiidAJ/hRtl/pkou9cn+WSrwV7Gce2VBO+eC53POdHUVY1TQ41AWEditr3VHpZEciweZFQrsdmA68RYfh4gqP+Eseynv5oJ0XTWg+q4dHE3ZeMd1UO2V+2BV75p4cZ/dsUUpc2c+QfFTQNDGPUgyn4nS7gUKYNXHbMlc0okpNJmG2jUmfH6RnIwN5816DoIEdyxpD68ANM88um9LiFVlUQAb7I3S5xxW6ucsmXoH7rR/yjYTrJdyczcfJ0FDhx1FsxHq/G1krPpZfVGoJTUohZ6N+2rd6EcfdOcrf0fixrr6hAXxNNzFMLiPNuP0ZuBpkb89ruYgGuo5lk/u4s4xYlM+H5VFQtFoz5WWSuz0bfAOCk5r2/cViRxqjFi4jzARzNNJkN6A09jUVtlK/eiPPBWYydmca0e71QOJppqjNQU1p3Wa+rENea1O0SQrhFv/rtJCHEzUPCRwjhFhI+Qgi3kPARQriFhI8Qwi0kfIQQbnHNwmfGjBnXqishxHVArnyEEG4h4SOEcAsJHyGEW0j4CCHcQsJHCOEWEj5CCLeQ8BFCdOpqVyy97tbzcTuFhoAJEXhVFaKvcvfJCNH3BgYNIig27LvCgedaz1FfbcJUUkOrq7XP+pErn0sVOIYJz6cTN0ZyW9x4bpyKpb2lCiCklzVfAnpbflkIcWluqIqlvRSSvow1dxp4a+nrZHezmmnIzCWseiyArc8sZ0dPq54OiSb+0enEjA1Eo4am0zqO/ddmShpSmL0uDce637M7o726qCqeaZ+ko/l4LTs3W0ChIfShuSTNiMDPV4mrwYJx2xYyP72wpm3o07/iwafb/m58/20yttpAFciwh9MYOzWCAF9oqtJRsS2TgkxTe6kfL0IfnU/ibUFoAjSoVOA4XUH5zhIcI+OJGBuCxqdtv+L3tn1XYRWAobEkPjKZiNGBaLxdWE8co/DdryjXOQElwYvSGTctDP8gDSoPJ015Gex6pYCWnqqzCtHuhqtY2huGv63irfBV/OLVJdBFAIVMX8KqJ4aT++Zvew4e32gmvrKAKMo4sXEvehOoApXYaoGuShJ1oEqby7T0QGo2buHgcRsEBKG2Xlwlwvjhexw42BZeDrMN0BD1/CJSxzZQ+sl28qtBc9tkEp/9KX6e77F7lwVQoYmNJKApj+x3i2lCQ+CPZpG4OBJbTjaF67Kw4U/E/bNI/Pc0zE/spMYO+MaS+sp8tKdzOPL251g9tIxYNIvUFWB7KgOjQ01AYizBrgIOvl6I1a5EjYkmRQhJPVVnFaLdDVmxtGdmst9aBs90HkAh05ew6ufDyV69lPV5Pb9zNLMnExNoIP+XmynUfW9jL8LHy1+DorUBY24ZxiqAH67i77CYqNddqMtO7ERuTVajf+/PHNzRXrInpxqH/+Ok3pdCcEYGxvPrwpsNVOXocAD6Sh/CEtNwFRygNKvtSseoiCDi3yPQRkBNMWh+NJkodRnZqzIprweoxmgPRPubWEbcmoExr/24ddXoDugulBRSRfdcnVWIdjdsxdKemcl+exk8dXEABUxZwsqfDyf790tZ/8/efWQHxIbA6cPUXObdKFtmFqXT00l6/UlCDxbw7c4jlBfbut3HOzYMDQZK8jq2s6HPr4XEcIKGgLG2kx3rGrC3gsZXA7SFj8topZkwVH4ASgJGBoJPCKnvLyW1474KGBjYzT/hJVdnFTeza12xtB+FD4CZ7P9dRstTq/jVq0sY/PcW7lownEOXEDzQuyfloVAAzs43moo5+OwaSiYnMGruRCaunkz8ri18vq6sy2rJPeqymqkTpxM8Om53OHF1mFZXApgKyV6Vhel7J+Co6+I5tB/b/OkmtmVFEDU3mdELFxA3v4zcFzdTUn5Zz0Lc4E4fryR8QgyqgV4/2NbXFUv7x92ui5g59L/L+H3ecB7612Hsv8TgATCVm2BIBKHhnWyst2JvAU1EUPcHcTVj3pfDwRfWkrnDit/tKUT4Ag4XLkDV4VYktFcRJQRtsqbDo15oxw4FSxXmy66/5mx7Pv5a/DBRr7v4T1MvXpq26qxb2PHMTmo8o4m7M6znncRN6XzFUtPJWuyWBlpsTdj0ZqpyTmI5ZezTvvrZlc95Zg796Vnu/9Pl7V2/K4vy2fMZu2IBqi0F6E/b8fD3h+ICaqoqKD/czLAZd5Fal0VFuY1WHy0dI0OVmEzMEAt1OhtOb3+GhHtBi57mFsBRhek0xN85i1GnC6jHH42jjNKcPArzE5i4aAETPbLQVTvxvW06iSmgfzcH/WVfMkH9523PZ/R/LoBtBehr7XgMCsJPUUVRZjep1lfVWcVNRSqWXglzMdlLN9O4eDoRD6UT7wMOk4nSdYXUVDVTue4TDj+Wxqj56UT5gKvJRlNVBZXVbUMY7/AIou6dRVKAEhzN2KoqyH/jKyrtAAYK/7gX38duI+m5eBR2C8ZddZTnVFO6+gNcD6URPz+dGF9oqq2i/I/bOJxxhfXUTcUcXLqFxsWTiViUTryPEle9hTP7LJRmGroeCvZBdVYhrpZrVrF0xowZ7Nmz51p0JYS4DvTDOR8hxM1AwkcI4RYSPkIIt5DwEUK4hYSPEMItJHyEEG4h4SOEcAsJHyGEW0j4CCHcQsJHCOEWEj5CCLeQ8BFCuIWEjxDCLSR8hBBu0f/X81H70fmC+Q4ctkbOrwcyQBOMp7KFFouVa7JGiBDiivTz8FExeN6bxMZ1Ukuo9Thlr7+GKWAOMfPuYXDQwLbHG3UYvlhLeV7NdRxCSjRxEQQoDVQe7X7heiH60gCPAaS9vAiAA2s+w2ZoWwgvIHIIyY/dgdPewp6X/9onffXz8HFg/eI1jh1Q4TF4GiPuScWzfDsn9hyn1dVAc8sYht//AIOVxzn1yd+wNAYTOONhwn78HK7Tz6GrdPf5XyZFIDG/WMCok5slfMQNq5+HD7jqTnK2DmhK4Fwr0FiBtfx420bP6XgNBOpKOVN0kqbWkzScBVJiaFEOBBrddt5CiO71+/DpVks+p49bCLg1nbFPRmA8up+6/FxO7czu1e7eM2aTOj+awCEaVN5KXGYTxsN5HNmYh/F8RdjwZKatSCV0iAYFTppOlVH8/mcXlzIOjCB+8XRikkPQqJW47DZsVdWUrN1yoURNt+WOO6eatoAHp7X/kLOdj18phK7KH6sTmPnGXHwPb2bnH9pK/CgS05izYgz1a//Mvky5ghL9y/UdPlg5s+XXHNPdQ9ikVLS3J6CdtRBr9npKMwpo6WFvdWQk2tAGiv4ng5pG8B4ey8h7ZpMW60/mc5kY7YC5itKPd1JisuPyDiLy/jQSn7sT8xPbqWmgrTTzawuIoYzCjVvQnwZVbDIT7o8kIBgopxfljjs/P0dOBl/8paKtzrvNiqu78sf1BRxYH82cZ+cyIe8dsvO0JD2dhOf+7eyX4BH90HUePkCrlbO5GziRuwGFNpXwux8mdMqTROn/g+IjvRh2tVjQZ5W1lbbJKeNUqZO7X0zi1tsPkrnDBg0GavacLyFSjdEVxrDlEWiHQ03R+dLMJgqf30x+aXszWyRJ914oGtbrcsffZ7dg1nWoNKHSdFv+uGnPZxwY9wgzH7kH19QQoihk37vFl1/oUIir6PoOH+29JD6RjlfxOg5tysalz0b39a2EPJiKd3Aw8P1C7T1zFRajr08mYmQIYIOh0SQunkz4yCA0A6GlETwVDhReAMq20symw1R3WQG0N+WOu6s62kGP5Y+bqXkng9K3FxCTYqP01Qxq6i/5JRA3sXOt53A5nChUyouqlnoO8gbA2dTTeKL3ru/w0Wej191OVNzDxN8fg6XOgWdsIopWI1ZdzeUdsxXaxjmAIoTEFQsYTSGH12dirHGijJ/M1EcuVPxU0ta+u/i4rHLHrs4e7Ln8sWJEJMG+TlxNGsKmReN9oJi+K3ArbgaNxnoGhQ4mYmocNoMFhUrB8NTRAJzVX2ENug6un28423VYiwswVVs7PFiD/sOXKN6bjzNgDIG3JDDQls+pTa9RXnqZg42otjevqcwAvuEEDoUzX35FSVY15nIDxpPWDrngxFJthaAwtEO6OuDllDt24nCAh1rdaYn3Lssf+0Yz/tkkFPu2sOO/C3Dddhe3zfG/vNdB3LS+/eooAEGxYUxffi9Tnp+H3/Agzp07R8Xewj7r5/q58rFkU76pk7tYLTWcyVzHmczLPK46grjFySgK6nANCiNmYQp+lkIO77FBgx6zCUbNnMao2gKMZifKET4XBYL584PUzJ5Lwop0+KSAOruGoKnReHdo1HO5Yw1RS3/GxNhqDj63hXKTFbPOhmLiRJLm2Kk0KdEMsqHbY0fbZfljL0IfnUsMBWSuL8PWoONgZgRpD80mJn8zpbWX+fqIm46xqIpjn3xDxNR4fIJ9Occ5zlafoWJvIdbKuj7r5/oJn6ul1YkiIplJdwaiwob1yGH2vbe3fa6kmoLXM1A9mkLikoS2ksMNNppqDdjO30CqLeCbF5Uk/SyZuKfi8caG+VQzrR2neS+53LGTmg07KQyczahHFzCKZmxHvuF0rqHL8seKxNlMmArlb+xF39B2DP37GZROWEDS4nh0rxbKxLPoNf0RHfojlz5neilu6nLJAYsfZ+5sPbt/up2aPnxnKm5L5yfPayl5/p0Ld8CEEBeRK58rpQ4jJl2L61QdtgYnqiERxNwXi8epLL7t8g6YEELC50oFBDEkNQXtv2jwPj+cys9iz/vZ1Hd6x0oIATf5sEsI4T7Xz612IcQNRcJHCOEWEj5CCLeQ8BFCuIWEjxDCLSR8hBBuIeEjhHALCR8hhFtI+Agh3ELCRwjhFhI+QohOqbw98dSoGeBxdWLihvzFUtXkdH78TBiVv3+X3Lxero98pRQhxK9+kHjbXnb+Ng+pFyGuVwODBhEUG4anjxpoW9e5vtqEqaSGVldrn/VzQ4ZPa4MVa7Uam+0aBQ+Aq5nGmjosdlvnyy8LcR3wCfZl6LgRFz02wGMAfsOC8PRRU51XBuf65nfR+0f4qAII0ZgxmHtuGhASgM1g7nZVPlf+XjLz++zseslC+RsbkCV8xHVrAASPGdblZu/BGgZp/Tlb24s3ai/0i/AJSV/GmjsNvLX0dbJN3bSbuYRVjwWw9Znl7OimHclzmb88gorlazlcBEQlk/pkMsFD/fD2UaJobcZWeozCP31FabkT1ewF/OTpQEpeaG8PoAgk/g+PM7ZuO397qRCHKpBhD6cxdmoEAb7QVKWjYlsmBZmm9isdDaNWP8OEpp1s/m1BezgqCZgzi6S7YwkeqgG7jfrdO/n83TJcgHdyKuPuvwXt8EA8Wy2cyc0h9528tiKAKNHMmMXEhbcQPMQL7DZsR/ex59UCGdKJq8JrkDdKL1W3bXyC/W6s8DH8bRVvha/iF68ugS4CKGT6ElY9MZzcN3/bffB0ZnAI2lgN5g+3k1tmB/8wYhZOZ+IysD6VgTG3DKMjGu34QChqP/iQaMLCnRh2leJAQ9Tzi0gd20DpJ9vJrwbNbZNJfPan+Hm+x+5dnZcT8Z13H3csHool8xuyPjDgUmkY6GgLK8XYNNKWJtC6by8HNuppHRrPrYtnM1Nl4++ri3GEJ5H6bwl4ZmWw5y09zV7++PvUSRkccdUoVD3HgcKz7yKjX4QPmMl+axk803kAhUxfwqqfDyd79VLW53Vaa6ZnriasR4upKQLQYXBp+cmz0QyLAWNRMZUnZjEhORbNR9nYXOA9YTSDW6s4nNMMsVO4NVmN/r0/c3BH+3VHTjUO/8dJvS+F4IwMjN+f6FFFEzc/EmfWFnav+X7VUC+i7k1C8+1edqxpn5w+Wk1jSCQ/viuecHUx5YMG4e3hor6wDH2RDTDQN583QnSu5UL1ya7bNPTcprf6SfgAmMl+exk8dXEABUxZwsqfDyf790tZ/8/LDJ5OuGpNNBKJejCAjcosHUmPjSYiPJtCnYZhqSFwJINyE3hPDkODgZK8jgMeG/r8WkgMJ2gIGL9fmiYinGAfMOeX/XB+SqElMEKJIiCNe7akfW+jE3UAUJJHYd4oxj/xOHdPPkZZRh6lB0w4ZDZbXCXOZgcNxnp8gn27aHGO+qpLHXZ0rR+FD4CZ7P9dRstTq/jVq0sY/PcW7lownEN9HDxAe0VQBW0vgZOmrEJqHkonaloghV9GExnjombNCRz04kXqrLIf0FMZZFdeBp9/UPG9u2Mumk4DLgulr7xL9dhYRsyeSNxzyYwtz2b38r0Y++7DR4iLnD5eSfiEmItKJZ9Xd6KG5rN9N/Dvh18yNHPof5fx+7zhPPSvw9h/NYKnM/XFlByw4Tc5mZg7byG4/hgl+5sBaDpZjY0QtMmaDjt4oR07FCxVmA2dHK9Kzxm7koDEaH4whecyYa5yoogMwcvw/Sqmlg5XN06ajhZS+MZ7/H11Ic6YFEYm97PPC3FDcTU7qDxQgulkLXZLAy22Jmx6M1U5J7GcMvZpX/30f7KZQ396lvv/dC37dKLfeQTrjBTG363EvG0b+vPjpaI8CvMTmLhoARM9stBVO/G9bTqJKaB/N+dCu47sxRTtMDD8/ruY+awfJ3MMNLWq0Qy0odtTTdnWAuKWJ5O60smxnWXUN4BqSCBetQWU5jfDkGhGTVZTX1pHs1ON/1h/lC4bjvpr+N0lcVNqdbowlxswl3f2qdp3+mn4uElpHieOpjAxtoySnR3HthZKV3+A66E04uenE+MLTbVVlP9xG4czOr/TBWD+6EM+r08jac5EJs7QoGhpxnp8L6e/rqY+L4OMVyyMuz+ZxGeTUXk4cZhM6P5aQinNEBDCsDuTCX5IgwInDpMB3cbt5B+9+i+DENeClM4RQrhFP5zzEULcDCR8hBBuIeEjhHALCR8hhFtI+Agh3ELCRwjhFhI+Qgi3kPARQriFhI8Qwi0kfIQQbiHhI4RwCwkfIYRbSPgIIdyi/y+pofaj8zWrHThsjZz/lfwBmmA8lS20WKxck1/TF0JckX4ePioGz3uT2LhOynm0Hqfs9dcwBcwhZt49DA4a2PZ4ow7DF2spz6u5jkNIiSYuggClgcqjUihHXDsDPAaQ9vIiAA6s+QyboW29qoDIISQ/dgdOewt7Xv5rn/TVz8PHgfWL1zh2QIXH4GmMuCcVz/LtnNhznFZXA80tYxh+/wMMVh7n1Cd/w9IYTOCMhwn78XO4Tj+HrtLd53+ZFIHE/GIBo05ulvARN6x+Hj7gqjvJ2TqgKYFzrUBjBdby420bPafjNRCoK+VM0UmaWk/ScBZIiaFFORBodNt5CyG61+/Dp1st+Zw+biHg1nTGPhmB8eh+6vJzObUzu1e7e8+YTer8aAKHaFB5K3GZTRgP53FkYx7G80WywpOZtiKV0CFty5k2nSqj+P3PKMxvvnCgwAjiF08nJjkEjVqJy27DVlVNydotlJyvnzw0lsRHJhMxOhCNtwvriWMUvvsV5bqu12RWTVvAg9Paf8jZzsevFEJMMuMfTyFihD8qmmmqOUHuip1UqhOY+cZcfA9vZucf2sr1KBLTmLNiDPVr/8y+TLmCEv3L9R0+WPSvAfwAABXbSURBVDmz5dcc091D2KRUtLcnoJ21EGv2ekozCmjpYW91ZCTa0AaK/ieDmkbwHh7LyHtmkxbrT+ZzmW0lasxVlH68kxKTHZd3EJH3p5H43J2Yn9hOTQPgG83E1xYQQxmFG7egPw2q2GQm3B9JQDBQDvjGkvrKfLSnczjy9udYPbSMWDSL1BVgeyoDYxeF5x05GXzxl/bSOjYrLkUISUtmE9GQQ+7vjmFpVqMZpmwrr1xfwIH10cx5di4T8t4hO09L0tNJeO7fzn4JHtEPXefhA7RaOZu7gRO5G1BoUwm/+2FCpzxJlP4/KD7Si2FXiwV9VllbBYqcMk6VOrn7xSRuvf0gmTts0GCgZs/5VfyrMbrCGLY8Au1wqCkCzezJxASaKHx+M/ml7c1skSTdG/5dF5ofTSZKXUb2qkzK69uPYw9E+5tYRtyagTGvi3OzWzDrOixkr9Kg9gVncQVV+QYcgLnowuamPZ9xYNwjzHzkHlxTQ4iikH3vfr9aqhD9w/UdPtp7SXwiHa/idRzalI1Ln43u61sJeTAV7+BgQHfJh3QVFqOvTyZiZAhgg6HRJC6eTPjIIDQDoaURPBUOFF4ASgJiQ8B0mOryro6oJGBkIPiEkPr+UlI7blLAwMC2ooW94tBRtKUC7aIFzIsopvSrAkoyyrhQ5baZmncyKH17ATEpNkpfzaCm/pJfAnETO9d6DpfDiUKlvKhwoOcgbwCcTT2NJ3rv+g4ffTZ63e1ExT1M/P0xWOoceMYmomg1YtXVXN4xW+G7EqKKEBJXLGA0hRxen4mxxokyfjJTHwn7rrmStvbdxYcSwFRI9qosTN+7DHHUdbFnp2WRnZg/3cS2rAii5iYzeuEC4uaXkfvi5u/mlhQjIgn2deJq0hA2LRrvA8X0XY1JcTNoNNYzKHQwEVPjsBksKFQKhqeOBuCsvutSUZfq+vmGs12HtbgAU7W1w4M16D98ieK9+TgDxhB4SwIDbfmc2vQa5aWXOdiIanvzmsoM4BtO4FA48+VXlGRVYy43YDxp7ZALTizVVggKQzukqwM6MZWbwF+LH9+vTmqiqdNirE4cDvBQqzutxOyq1VG6fgs7ntlJjWc0cXe2h6FvNOOfTUKxbws7/rsA1213cdsc/8t7HcRN69uv2orDBcWGMX35vUx5fh5+w4M4d+4cFXsL+6yf6+fKx5JN+aZO7mK11HAmcx1nMi/zuOoI4hYnoyiowzUojJiFKfhZCjm8xwYNeswmGDVzGqNqCzCanShH+FwUCObPD1Izey4JK9LhkwLq7BqCpkbj3aFR/edZlM+ez+j/XADbCtDX2vEYFISfooqiTAOgIWrpz5gYW83B57ZQbrJi1tlQTJxI0hw7lSYlmkE2dHvsaOdFQrkemw28RoTh4wmOejvgReijc4mhgMz1ZdgadBzMjCDtodnE5G+mtPYyXx9x0zEWVXHsk2+ImBqPT7Av5zjH2eozVOwtxFpZ12f9XD/hc7W0OlFEJDPpzkBU2LAeOcy+9/a2z5VUU/B6BqpHU0hckoBKBa4GG021BmznbyDVFvDNi0qSfpZM3FPxeGPDfKqZ1o7TvKZiDi7dQuPiyUQsSifeR4mr3sKZfRZKMw2dTAg7qdmwk8LA2Yx6dAGjaMZ25BtO5xoITkkhZqF/27nUmzDu3knuFhOKxNlMmArlb+xF39B2DP37GZROWEDS4nh0rxbKxLPoNf0RHfojlz5neilu6oqlAYsfZ+5sPbt/up2aPnxnKm5L5yfPayl5/p0Ld8CEEBeRK58rpQ4jJl2L61QdtgYnqiERxNwXi8epLL7t8g6YEELC50oFBDEkNQXtv2jwPj+cys9iz/vZ1Hd6x0oIATf5sEsI4T7Xz612IcQNRcJHCOEWEj5CCLeQ8BFCuIVSv/jLa9NTxe+4Zn0JIfq9AcpJD1+Tu133RrTwqc7zWnQlhLgOyLBLCOEWEj5CCLeQ8BFCuIWEjxDCLSR8hBBu4b7wGaBA5a1G3ckfVcdfd1V4ovbVoPbsbE2/Loy+nQ2rn+DJkX1+1kKIPuK+32oPuIUp6WPRDPjhJvuJL/nigI2hKZO5JTYYtQLARWP1cQq+LqCuh0WJ1cPimDMpAsuHKuhPS2h5BnPblDEEVGaz62R35zWQ0SkJjFPo2LT/MteiFuIyKDw8+HzNfwLw/636PypqjAAkjBzOG794kAZ7M/csebNP+nLflY+1jMP/+JJvdu3mpBE4Z+PUN1/yza4vySk8gzr2NsaNCcZZkcv+HZ9zcP8pWrVjGT8lBrXbTvoKDZ3E2y8+wi/HdlJ7viPPUJ5a8gRr7gq9fp+rED1w35WPy4ZVbwMU+DQBtNB4Wo+5fX14v1EaFLRgOVVOnbEFjFYcihaGql10crEkhLjO9NsJZ+u3ZZidnoRP+zFTpiUxbJg3tsJcjueVX0YpGBXzlrxKZcb/4cj+gLM7X+fr5dNJ9AY8x7Bm8wec/Z/b0XbYI/LBX+P4+tcsjWj7WR0xnpdefYnKzP/DsWctJ9c+wS+T/C7sEJFO7tcfkDF/4IXHvKez/esPyH0s4qKzmblkLY7sD3Bkf8DXD4d2edb+s57hbHs7xxvTUQP+CXPY8O7rGPd8gGPPWir/8ggPDAEibidj5wdUvjjpu+fhP+khTu5Zy/b04Et+xYS42vrvSoZnjpK93Up0YhyRkWNIjB6Dy3qKo3uyqDxzqUsEOijK+gfPH7agt4E2IY2XHn6Ed00VTFh3kl2HrTw5K46Zmi/ZZAMYyMyECKj6kt1VQOB43nnzGea5CvjDW9v5Z1MwMxeks/r3oQQ8+zK/Kby0eaUDf/4vnvm6rWaO3Wjssp19/8fc8e5x7AA2I3bPMaxevpB5ti95dkUeRS0qosJVFJkA15c8/sc4vn7hAdbsP86CAyNZvWQ66m/W8/j2rvsQwl36b/gArdZTnNx7ipNKDUGjkhibMpzEaVbM/6+AS60+fmL/Xk6c/yGnhsiUBF66ZSRadOzem4/+rgnMmzSQTV80gudIJsWpqMg6Qr4LRs9P54EhNbz62Nv85kRb0GzNNeK/8Rme/NfxvLl0P5dSSq3JVEH+iZ5LOdubjOSf0PFdQVJPP7T+YCkqYtc3x9EDB3IutK/4bAPPp7zMhqefYMMdYczjEA//YT/6Szg3Ia6VfjrsUjB01gP8ePGPGT0YcNqoO34Y3RnA149Bl3DXvY0fMxc+QsZfXseY8X+c3flrnhoBKFSoAXveAbaeHsjMWQn4A+q4OGb6W9n9zUnsqJg0MhRqj7P72w5XOJYCdhc58B8Vw7hr9fuyLYd4c1Mp6lnPcPQv/8GaB8eTqOnYwMqmP2xgk2sMD0yCrX/cwFZTVwcT4odcra3YW9r+n/trLkwh+A9q+/vZxr6rf9tPw8dFXUk5jfgxIu12EsYnMHrSbUQNBpexDssljrq06Y+y+dkJeOf9g8dfeI07Vmxga1WHBi3Hee+LGvxTJvFAoIrRkxKItBxnV94lDKdctF2hePZwJ+uKODjw55cZ+dM3WZUHM3/6DLmb/pOloy/06R8Xxzh/B/YmP2beMYHIq3g24sZUaWj7xFpw+0T8NQMZEuDLT2ZOAKC8uu+G8P0gfFw0GE9Re8qIrUPZckfVAbL+cZjKMwr8IqIYGqLAWpRLVubx3k84KwBUjBsTib+lgDf/+CVbD5dy4PBxiswXN83fto/djGFRegLzJwWjzz3EriYAB/88WQNDRzJzRIdg0SQwM06FvewU/2wBLFbMLRAVGdn17fEmB3bAW9NDCWOXA0sLqL19Oj2W5dsC/vCHNxn7yEZ2DxzDU/8ysq1d4HjWLJmO+qt1TH1lP/YpC3nnvq4ntIXozF/+kQVAyphoPn3tF3z08tOMiQrnHOf4KGN/n/Wj8BiWsLLPjtaNMf4ujls7Hy/ZDTpqymuwfe9Cw2kzcrq8DF3RCSpOlFFTbaK5F1c9Sv9YHrl7NMFOA7lFOqr8b+XxmdFoVY3UuVQEDdWSOnUSk1zHePuz0rb5GlsNtsjp/PLOBMZqG/j7nz5ka1UrAHqdnZF33M7PpoXi3diKetgYnv33BfxMa+D3r3/ILkMrtFhQx03noWkxxCmcOP2CiYuJYe60EVCwm3cPW8HhybjZU5g3yh/n2VaCY8YwM8zOIWss72x4ifdmwRf/KEbvasQ/YToPpIQS3GRHqY1mzjh/KkrU3Lc4lTiNJ8FBwYy7dRzpE4dhOZTB2kPwwAu/5DdDcnl8+WfsKTpOaegUls2PwbYviwPWbl8yIb5TaTBRaThDaLA/gwaqcThdFOtq+e+PP6egpO+qmPbrCefLZS/IZNVnI3npjof5j5xDPLxtI48PXciyHz3E9gdV0OLActZI/gHLhclcGtm6aS/5s9JJ1O3ivZyO5Y738/gvQP90Oj/7j2dYqmik4mQBv1m6iVcLzrez8ufX30b7y4U89a+PMM8b7E2N6HWl7Kpsn1xuOc6qP2wn8tnbWbZ8POomKwe2GflzAVxUAB4HW9dtYG3gQh54+gl+RiMV+bvYv0fFuNQ0HvhpMP6eYLcYyf9iI7/6iw7/SY/w0izY+srf2Gppez67/vg3Nt32BMuens6m5/fKxLPotd15x9mdd/yq9iErGXakGc+GTU+g/XApsz+W29NCXE035JXPJVEEc1uKH7iCmbvoAeZZvyR9mwSPEFebhE/4eF56cSEzPRupOJbN4y98zO6+u5sohOiChI9uF7Nn73L3WQhx0+kHt9qFEDcjCR8hhFsondOfvzY9VfyOa9aXEKLfG6DVaq/JrfYZM2awZ8+ea9GVEOI6IMMuIYRbSPgIIdxCwkcI4RYSPkIIt5DwEUK4hYSPEMIt3PfrFR4qFAMH0tkKP64WK66W9h+UA/H084EGCy32flQAUAhxRdwXPkPuYewT6Xh3cu3VkvsaeZ8ZGfyjJ4gaPxJPJYADe+kuvt3yKdZLXT2+P/ENRJvoT2NeGfUN7j4ZIS42wGMAaS8vAuDAms+wGdpKIwREDiH5sTtw2lvY8/Jf+6Qv94VP3V5OfnAcD1QE3P4cYWFGDNvXYzRDa30FnsnPMvK2kTQXbOB4jo4B2jQi56QTO89I/sa9tPTcQ7+kmJBG2tMaDj8t4SNubu4LH6eRhnIjoELdANBI86njnK1r2+yTHIwHjdhOZGOtbITKasqUjQz2cUjFUiFuAP12SY2GI3s5m3IvwT95DfXo/Zw+thfT/g2c7c3OUcmkPplMcLgfGh8lNNkwHy+m5KOvKC09v0q9Eu1jD5M6MxBvHyWuehPGA1nkvlNI/XdTS0p8Z88i+e5YQsI1KFqdNJlNWA/sZd/6MtqaeRGcnsatd0YTGKKGehNV/8gkd7OOLmeoFCEkrVtKEgAmCp97h/xyDaEPzSVpRgR+vkpcDRaM27aQ+amJ4EcfIe0OOwVLN1BUDuBPzIuPMD4gj8+f24tZpsLEdajfhg/67RSuqyF0xhy08XOITphDVN0hyjev5bS+h3fb4BC0sRrMn2wnt9QJ/iFE3j2Zib/TovruDezElnuQ3AIb9iZQxyaTtCidKWY9Oz9qKx3iO+8+frR4KLbMb8j6iwGHh4Zhi9IZNSYQL9rCx3fB/aQtUHPq4wx2F9pRj09lwsKfMKXxPXbv6KKUoMtE0Wt/o9QA4KKpBlRpc5mWHkjNxi0cPG6DgCDUVgvgxLhhGyfGPkzCv6VS/UI2rXPmkBRr4egKCR5x/eq/4QOcqztE9aeHqPYMxi/pAaJ+NJ7on9zD2T9+2nP5HFcT1n8WU1MEUEbNARP8cT5j74ulZHUxLsCWX3ih8ulRE97jY5kQG44KEw5VNHH3RELOdr5YU9h+FaPEezaMOl+iXR3NLT8Ow7bjPbI/NbQ9VmTCO/YZJkyJxntHXhfn6aSp0kR97YVHNP4aFK0NGHPLMFYBGC5sdBjIf2svQ16dzpRng3BOGIrpkw8oLO31SylEv9NPw0fF4AfWERtrpHrdC5zSG7Ee2IQhcTyRQ0LxVkKTs+ejXKS+jNoTTqJGhOOrKMbs8iLg7ukkzo4mIEiD0mXHqQIqlCgBR3g4wb5gPFza9fApPJzBPuCX/ggPpnd4XAHU+qNWQFMvCxzaMrMonZ5O0utPEnqwgG93HqG8uMNtvfIcsj8dzd0PxUNpJju2SylS0ffOtZ7D5XCiUClRDfT67nHPQd4AOJv67lZPPw0fB9ZD2dhjpzN00Qsoj5Xi9IohUAutupM0XGrwdEKVdhd3PBaGaetXZO+voxENMU8uIO58AwWgcEJLz+lh/HQDB7LsFz/YYqPhUiqrmoo5+OwaSiYnMGruRCaunkz8ri18vu783JI/2jFBbakbcQsRUYcpLO2DF0KI72k01jModDARU+OwGSwoVAqGp44G4Ky+i6mEy9APvuHswF51iDPFJ+kYqq6T6yn8YBOn9So0cZMYPFxFY84Gjm3aRfPldKMOY0i0EodOT70L/EeGoKovo/DDQvTFBuqLdZjPdGhfW0d9k5KAWyM6/SIkAFV6ztjBP8qfJp2J+o5/apvpNHvsTlwo8fLpZJurGfO+HA6+sJbMHVb8bk8hwrdtk++96SSNrqNgxQYKSgMZ+8vpBHdZGlWIy/ftV0cBCIoNY/rye5ny/Dz8hgdx7tw5KvYW9lk/Co1Gs7LPjtaNyMhIKioqOt3WojuI6VgBTd9LFZelFMvRfRgOZqDP3Yfp5Lc4evNhHzqSuJnhDPJV4WpV4jl8ODGPzmZ02FlK3v2SmtOtnAsewajJw/DxaKDJ4YEqcDAhk8cypLWMoi9rcTrMNAaMZnRaHEGaZprPqRk0LolRU8PQNJVTnFFNi9OKbWAMI++4hfChLpwoUYdqCU6JZOCZWs42gGbeA/zLyqkMrMqnpqqVc85BhM6JJySwFVuzB5r4GAY5a7FHJRN760AGKD3xGhaKdmIsWn8j324ppj4shem/iKdh0yZy9puoK2wm5J5pRAZUUnbIyjVZDU7cNBrr6mmsq8d78CBUak9aW1upr6yjeHsu5nJDzwfopX467OoLLlyDIoh/OgWNGppOlZG/OoPCo23p1ZSxk30hc0lMm0vavUpwOHHYLJhzbbS1cGJ8fzO7HbNJnJzGtLsUtJ42YGsFXLRf1Tgxb/yQz61pJN05kYlTNSham2mqqeLY0Tw43clp1R7mwPtaptw7mWkpSlxmA2XrjmELiiDq3lkkBSjB0YytqoL8N76i0u5PzGNTGFydxc7P2i95a/PI3RLP3IVpjP3yPfJl4ln0Mf0RHfojfVcauTM35jKqyXOZvzyCiuVrOVzUlwf2J+6NJ0k4s52/vlLY+bBKCNErN/CVz5XTTE4h1MeK7bQNh0JDwISJjI2ycWpbqQSPEFdIwqdLSrxHRDNq5lA0/l7fDadK131Gwb7LmvIWQnRwYw67hBD9Xj+41S6EuBlJ+Agh3ELCRwjhFhI+Qgi3uGYTzkII0ZFc+Qgh3ELCRwjhFv8/6QYURN1sTwQAAAAASUVORK5CYII=;" vertex="1" parent="1">
          <mxGeometry x="40" y="670" width="287" height="215" as="geometry" />
        </mxCell>
        <mxCell id="cxdubeCqOBrOztKt_zzH-8" value="&lt;font style=&quot;font-size: 16px;&quot;&gt;Basically all folder (routes) that have a page.tsx will be considered children and the master template&amp;nbsp; will be applied to them.&lt;/font&gt;" style="text;html=1;strokeColor=none;fillColor=none;align=center;verticalAlign=middle;whiteSpace=wrap;rounded=0;" vertex="1" parent="1">
          <mxGeometry x="340" y="670" width="480" height="100" as="geometry" />
        </mxCell>
      </root>
    </mxGraphModel>
  </diagram>
</mxfile>
